<svg xmlns="http://www.w3.org/2000/svg" xmlns:xlink="http://www.w3.org/1999/xlink" width="500" zoomAndPan="magnify" viewBox="0 0 375 374.999991" height="500" preserveAspectRatio="xMidYMid meet" version="1.0"><defs><g/><clipPath id="45dc12534d"><path d="M 53.664062 40.324219 L 321.414062 40.324219 L 321.414062 209.074219 L 53.664062 209.074219 Z M 53.664062 40.324219 " clip-rule="nonzero"/></clipPath></defs><g clip-path="url(#45dc12534d)"><path fill="#ffffff" d="M 87.578125 56.539062 L 54.71875 81.65625 L 86.234375 81.65625 Z M 173.324219 40.386719 L 121.308594 40.386719 L 146.695312 52.820312 Z M 108.039062 40.894531 L 93.980469 51.640625 L 92.496094 79.648438 L 139.542969 56.332031 Z M 183.902344 87.992188 L 139.085938 87.992188 L 171.496094 161.539062 Z M 247.496094 153.863281 L 321.429688 87.992188 L 287.652344 87.992188 Z M 204.90625 173.953125 L 194.859375 200.757812 L 231.605469 168.015625 L 268.414062 107.648438 Z M 162.894531 157.316406 L 132.335938 87.992188 L 96.496094 87.992188 Z M 106.6875 107.648438 L 143.488281 168.003906 L 180.238281 200.75 L 170.179688 173.945312 Z M 53.671875 87.992188 L 127.605469 153.855469 L 87.445312 87.992188 Z M 187.554688 103.300781 L 175.984375 171.871094 L 187.554688 209.015625 L 199.113281 171.859375 Z M 203.605469 161.542969 L 236.023438 87.992188 L 191.203125 87.992188 Z M 282.601562 79.648438 L 281.121094 51.640625 L 267.0625 40.894531 L 235.550781 56.332031 Z M 320.390625 81.65625 L 287.523438 56.53125 L 288.859375 81.65625 Z M 197.585938 81.65625 L 236.054688 81.65625 L 227.117188 61.054688 Z M 147.984375 61.054688 L 139.046875 81.65625 L 177.527344 81.65625 Z M 132.320312 81.65625 L 140.441406 62.917969 L 102.628906 81.65625 Z M 187.554688 80.996094 L 222.15625 56.867188 L 187.554688 40.695312 L 152.941406 56.867188 Z M 272.464844 81.65625 L 234.660156 62.917969 L 242.777344 81.65625 Z M 242.765625 87.992188 L 212.210938 157.308594 L 278.605469 87.992188 Z M 228.40625 52.820312 L 201.78125 40.386719 L 253.789062 40.386719 L 228.40625 52.820312 " fill-opacity="1" fill-rule="nonzero"/></g><g fill="#ffffff" fill-opacity="1"><g transform="translate(12.632816, 261.220896)"><g><path d="M 71.898438 -42.164062 L 61.988281 -42.164062 C 61.257812 -42.164062 61.425781 -41.660156 61.929688 -41.546875 C 62.15625 -41.492188 62.378906 -41.378906 62.601562 -41.269531 C 63.835938 -40.597656 63.609375 -39.027344 63.609375 -37.742188 C 63.609375 -37.460938 63.609375 -36.171875 63.609375 -34.269531 L 63.609375 -19.375 C 63.554688 -12.261719 57.785156 -6.496094 50.730469 -6.4375 C 46.53125 -6.4375 42.109375 -6.382812 37.851562 -6.382812 C 33.484375 -6.382812 28.949219 -6.382812 24.75 -6.382812 C 17.582031 -6.382812 11.816406 -12.207031 11.757812 -19.316406 L 11.757812 -34.269531 C 11.757812 -36.171875 11.757812 -37.460938 11.757812 -37.742188 C 11.757812 -39.027344 11.535156 -40.597656 12.765625 -41.269531 C 12.992188 -41.378906 13.214844 -41.492188 13.4375 -41.546875 C 13.941406 -41.660156 14.109375 -42.164062 13.382812 -42.164062 L 3.472656 -42.164062 C 2.800781 -42.164062 2.800781 -41.714844 3.414062 -41.492188 C 3.582031 -41.378906 3.75 -41.324219 3.863281 -41.210938 C 4.589844 -40.707031 4.703125 -40.035156 4.703125 -39.195312 L 4.703125 -19.375 C 4.757812 -8.457031 13.550781 0.335938 24.46875 0.335938 L 50.898438 0.335938 C 61.820312 0.335938 70.664062 -8.511719 70.664062 -19.375 L 70.664062 -21 L 70.609375 -34.324219 L 70.609375 -39.195312 C 70.664062 -40.035156 70.722656 -40.707031 71.503906 -41.210938 C 71.617188 -41.324219 71.785156 -41.378906 71.953125 -41.492188 C 72.570312 -41.714844 72.570312 -42.164062 71.898438 -42.164062 Z M 71.898438 -42.164062 "/></g></g></g><g fill="#ffffff" fill-opacity="1"><g transform="translate(88.054286, 261.220896)"><g><path d="M 75.761719 -40.484375 C 75.761719 -41.15625 75.59375 -41.4375 74.867188 -41.4375 C 72.90625 -41.378906 6.886719 -41.378906 3.863281 -41.378906 C 2.6875 -41.378906 2.574219 -41.269531 2.574219 -40.035156 C 2.519531 -37.574219 2.574219 -35.054688 2.574219 -32.53125 C 2.574219 -32.308594 2.574219 -32.085938 2.800781 -32.085938 C 3.023438 -32.085938 3.023438 -32.308594 3.078125 -32.476562 C 3.527344 -33.988281 4.253906 -34.492188 5.765625 -34.4375 C 6.382812 -34.4375 44.628906 -34.492188 45.746094 -34.382812 C 46.476562 -34.324219 46.8125 -33.988281 46.867188 -33.371094 C 46.980469 -32.195312 46.980469 -5.261719 46.980469 -3.527344 C 46.921875 -2.015625 46.921875 -1.457031 45.46875 -0.726562 C 45.300781 -0.671875 44.90625 -0.558594 45.019531 -0.28125 C 45.074219 0.0546875 45.410156 0 45.691406 0 C 46.644531 0 53.027344 0 55.15625 0 C 55.492188 0 55.9375 0.113281 56.050781 -0.28125 C 56.21875 -0.671875 55.660156 -0.671875 55.324219 -0.839844 C 54.316406 -1.34375 53.921875 -2.40625 53.921875 -3.414062 C 53.921875 -4.144531 53.921875 -31.078125 53.921875 -32.980469 C 53.980469 -33.988281 54.371094 -34.382812 55.433594 -34.382812 C 58.625 -34.382812 69.824219 -34.382812 72.234375 -34.382812 C 73.746094 -34.382812 74.976562 -34.101562 75.257812 -32.253906 C 75.257812 -31.859375 75.761719 -31.859375 75.761719 -32.253906 C 75.761719 -33.148438 75.761719 -38.691406 75.761719 -40.484375 Z M 75.761719 -40.484375 "/></g></g></g><g fill="#ffffff" fill-opacity="1"><g transform="translate(166.49933, 261.220896)"><g><path d="M 15.957031 -41.941406 C 16.460938 -42.050781 16.628906 -42.554688 15.902344 -42.554688 L 5.992188 -42.554688 C 5.320312 -42.554688 5.320312 -42.109375 5.933594 -41.882812 C 7.113281 -41.324219 7.222656 -40.597656 7.28125 -39.589844 L 7.222656 -21.390625 L 7.222656 -21.222656 C 7.222656 -13.160156 7.222656 -5.207031 7.222656 -4.421875 C 7.28125 -2.96875 7.558594 -1.121094 5.542969 -0.671875 C 5.039062 -0.503906 4.925781 0 5.597656 0 L 15.511719 0 C 16.183594 0 16.238281 -0.503906 15.621094 -0.726562 C 14.390625 -1.230469 14.335938 -1.960938 14.277344 -2.96875 L 14.277344 -21.390625 C 14.277344 -29.453125 14.277344 -37.40625 14.277344 -38.132812 C 14.277344 -39.589844 13.941406 -41.4375 15.957031 -41.941406 Z M 15.957031 -41.941406 "/></g></g></g><g fill="#ffffff" fill-opacity="1"><g transform="translate(188.056324, 261.220896)"><g><path d="M 71.730469 -8.175781 C 71.730469 -8.457031 71.730469 -8.734375 71.503906 -8.792969 C 71.167969 -8.847656 71.167969 -8.511719 71.058594 -8.289062 C 70.609375 -7.390625 69.992188 -6.777344 68.875 -6.777344 C 66.019531 -6.777344 16.40625 -6.328125 13.101562 -6.382812 C 13.101562 -6.382812 13.101562 -6.382812 13.046875 -6.382812 C 12.320312 -6.382812 11.703125 -7 11.703125 -7.785156 L 11.703125 -34.492188 C 11.703125 -36.398438 11.703125 -37.628906 11.703125 -37.910156 C 11.703125 -39.195312 11.480469 -40.765625 12.710938 -41.492188 C 12.878906 -41.546875 13.101562 -41.660156 13.382812 -41.714844 C 13.886719 -41.828125 14 -42.332031 13.328125 -42.332031 L 3.414062 -42.332031 C 2.742188 -42.332031 2.6875 -41.882812 3.304688 -41.660156 C 3.527344 -41.546875 3.695312 -41.492188 3.808594 -41.378906 C 4.535156 -40.875 4.648438 -40.203125 4.648438 -39.363281 L 4.648438 -13.046875 C 4.648438 -8.34375 4.648438 -4.703125 4.648438 -4.199219 C 4.648438 -2.742188 4.984375 -0.894531 2.96875 -0.449219 C 2.464844 -0.335938 2.351562 0.222656 3.023438 0.222656 L 13.046875 0.222656 L 70.945312 0.167969 C 71.335938 0.167969 71.730469 -0.0546875 71.730469 -0.449219 C 71.730469 -0.785156 71.671875 -6.214844 71.730469 -8.175781 Z M 71.730469 -8.175781 "/></g></g></g><g fill="#ffffff" fill-opacity="1"><g transform="translate(262.357943, 261.220896)"><g><path d="M 15.957031 -41.941406 C 16.460938 -42.050781 16.628906 -42.554688 15.902344 -42.554688 L 5.992188 -42.554688 C 5.320312 -42.554688 5.320312 -42.109375 5.933594 -41.882812 C 7.113281 -41.324219 7.222656 -40.597656 7.28125 -39.589844 L 7.222656 -21.390625 L 7.222656 -21.222656 C 7.222656 -13.160156 7.222656 -5.207031 7.222656 -4.421875 C 7.28125 -2.96875 7.558594 -1.121094 5.542969 -0.671875 C 5.039062 -0.503906 4.925781 0 5.597656 0 L 15.511719 0 C 16.183594 0 16.238281 -0.503906 15.621094 -0.726562 C 14.390625 -1.230469 14.335938 -1.960938 14.277344 -2.96875 L 14.277344 -21.390625 C 14.277344 -29.453125 14.277344 -37.40625 14.277344 -38.132812 C 14.277344 -39.589844 13.941406 -41.4375 15.957031 -41.941406 Z M 15.957031 -41.941406 "/></g></g></g><g fill="#ffffff" fill-opacity="1"><g transform="translate(283.914949, 261.220896)"><g><path d="M 75.761719 -40.484375 C 75.761719 -41.15625 75.59375 -41.4375 74.867188 -41.4375 C 72.90625 -41.378906 6.886719 -41.378906 3.863281 -41.378906 C 2.6875 -41.378906 2.574219 -41.269531 2.574219 -40.035156 C 2.519531 -37.574219 2.574219 -35.054688 2.574219 -32.53125 C 2.574219 -32.308594 2.574219 -32.085938 2.800781 -32.085938 C 3.023438 -32.085938 3.023438 -32.308594 3.078125 -32.476562 C 3.527344 -33.988281 4.253906 -34.492188 5.765625 -34.4375 C 6.382812 -34.4375 44.628906 -34.492188 45.746094 -34.382812 C 46.476562 -34.324219 46.8125 -33.988281 46.867188 -33.371094 C 46.980469 -32.195312 46.980469 -5.261719 46.980469 -3.527344 C 46.921875 -2.015625 46.921875 -1.457031 45.46875 -0.726562 C 45.300781 -0.671875 44.90625 -0.558594 45.019531 -0.28125 C 45.074219 0.0546875 45.410156 0 45.691406 0 C 46.644531 0 53.027344 0 55.15625 0 C 55.492188 0 55.9375 0.113281 56.050781 -0.28125 C 56.21875 -0.671875 55.660156 -0.671875 55.324219 -0.839844 C 54.316406 -1.34375 53.921875 -2.40625 53.921875 -3.414062 C 53.921875 -4.144531 53.921875 -31.078125 53.921875 -32.980469 C 53.980469 -33.988281 54.371094 -34.382812 55.433594 -34.382812 C 58.625 -34.382812 69.824219 -34.382812 72.234375 -34.382812 C 73.746094 -34.382812 74.976562 -34.101562 75.257812 -32.253906 C 75.257812 -31.859375 75.761719 -31.859375 75.761719 -32.253906 C 75.761719 -33.148438 75.761719 -38.691406 75.761719 -40.484375 Z M 75.761719 -40.484375 "/></g></g></g><g fill="#ffffff" fill-opacity="1"><g transform="translate(106.968747, 316.520898)"><g><path d="M 4.5 -12.960938 L 2.304688 -12.960938 C 2.304688 -20.84375 6.515625 -26.171875 14.257812 -26.171875 C 21.925781 -26.171875 26.101562 -20.878906 26.101562 -13.066406 C 26.101562 -5.148438 21.886719 0.179688 14.183594 0.179688 C 6.515625 0.179688 2.304688 -5.074219 2.304688 -12.960938 L 4.5 -12.960938 C 4.5 -6.265625 7.777344 -1.65625 14.292969 -1.65625 C 20.734375 -1.65625 23.941406 -6.40625 23.941406 -13.066406 C 23.941406 -19.726562 20.59375 -24.371094 14.113281 -24.371094 C 7.667969 -24.371094 4.5 -19.621094 4.5 -12.960938 Z M 4.5 -12.960938 "/></g></g></g><g fill="#ffffff" fill-opacity="1"><g transform="translate(135.372798, 316.520898)"><g><path d="M 25.128906 -24.265625 L 25.128906 -25.992188 L 30.347656 -25.992188 L 30.347656 -24.265625 Z M 25.128906 -25.992188 L 25.128906 -24.265625 L 19.945312 -24.265625 L 19.945312 -25.992188 Z M 6.371094 -25.992188 L 6.371094 -24.265625 L 1.152344 -24.265625 L 1.152344 -25.992188 Z M 6.371094 -24.265625 L 6.371094 -25.992188 L 11.554688 -25.992188 L 11.554688 -24.265625 Z M 5.257812 -25.488281 L 7.273438 -25.488281 L 7.273438 -10.152344 C 7.273438 -4.429688 10.117188 -1.726562 15.910156 -1.726562 C 21.277344 -1.726562 24.15625 -4.285156 24.15625 -9.503906 L 24.15625 -25.488281 L 26.171875 -25.488281 L 26.171875 -9.757812 C 26.171875 -3.023438 22.609375 0.179688 15.730469 0.179688 C 8.785156 0.179688 5.257812 -3.023438 5.257812 -9.828125 Z M 5.257812 -25.488281 "/></g></g></g><g fill="#ffffff" fill-opacity="1"><g transform="translate(166.800858, 316.520898)"><g><path d="M 1.511719 -25.09375 L 3.277344 -25.09375 L 3.277344 -20.914062 L 1.511719 -20.914062 Z M 23.039062 -25.09375 L 24.804688 -25.09375 L 24.804688 -20.914062 L 23.039062 -20.914062 Z M 13.140625 0 L 13.140625 -1.726562 L 18.359375 -1.726562 L 18.359375 0 Z M 13.140625 -1.726562 L 13.140625 0 L 7.921875 0 L 7.921875 -1.726562 Z M 14.257812 0 L 12.097656 0 L 12.097656 -25.558594 L 14.257812 -25.558594 Z M 1.511719 -24.15625 L 1.511719 -25.992188 L 24.804688 -25.992188 L 24.804688 -24.15625 Z M 1.511719 -24.15625 "/></g></g></g><g fill="#ffffff" fill-opacity="1"><g transform="translate(193.116912, 316.520898)"><g><path d="M 22.535156 -0.863281 L 20.773438 -0.863281 L 20.773438 -5.074219 L 22.535156 -5.074219 Z M 6.695312 -1.726562 L 6.695312 0 L 1.476562 0 L 1.476562 -1.726562 Z M 6.695312 -25.992188 L 6.695312 -24.265625 L 1.476562 -24.265625 L 1.476562 -25.992188 Z M 6.695312 -24.265625 L 6.695312 -25.992188 L 11.914062 -25.992188 L 11.914062 -24.265625 Z M 7.8125 0 L 5.652344 0 L 5.652344 -25.992188 L 7.8125 -25.992188 Z M 6.695312 0 L 6.695312 -1.726562 L 22.535156 -1.726562 L 22.535156 0 Z M 6.695312 0 "/></g></g></g><g fill="#ffffff" fill-opacity="1"><g transform="translate(216.912954, 316.520898)"><g><path d="M 23.074219 -0.863281 L 21.3125 -0.863281 L 21.3125 -5.074219 L 23.074219 -5.074219 Z M 20.050781 -25.128906 L 21.816406 -25.128906 L 21.816406 -20.914062 L 20.050781 -20.914062 Z M 6.984375 -1.726562 L 6.984375 0 L 1.800781 0 L 1.800781 -1.726562 Z M 6.984375 -25.992188 L 6.984375 -24.265625 L 1.800781 -24.265625 L 1.800781 -25.992188 Z M 7.128906 -12.601562 L 7.128906 -14.328125 L 19.441406 -14.328125 L 19.441406 -12.601562 Z M 6.550781 -24.265625 L 6.550781 -25.992188 L 21.816406 -25.992188 L 21.816406 -24.265625 Z M 8.0625 0 L 5.867188 0 L 5.867188 -25.992188 L 8.0625 -25.992188 Z M 6.550781 0 L 6.550781 -1.726562 L 23.074219 -1.726562 L 23.074219 0 Z M 6.550781 0 "/></g></g></g><g fill="#ffffff" fill-opacity="1"><g transform="translate(241.717003, 316.520898)"><g><path d="M 1.511719 -25.09375 L 3.277344 -25.09375 L 3.277344 -20.914062 L 1.511719 -20.914062 Z M 23.039062 -25.09375 L 24.804688 -25.09375 L 24.804688 -20.914062 L 23.039062 -20.914062 Z M 13.140625 0 L 13.140625 -1.726562 L 18.359375 -1.726562 L 18.359375 0 Z M 13.140625 -1.726562 L 13.140625 0 L 7.921875 0 L 7.921875 -1.726562 Z M 14.257812 0 L 12.097656 0 L 12.097656 -25.558594 L 14.257812 -25.558594 Z M 1.511719 -24.15625 L 1.511719 -25.992188 L 24.804688 -25.992188 L 24.804688 -24.15625 Z M 1.511719 -24.15625 "/></g></g></g></svg>